<svg xmlns="http://www.w3.org/2000/svg" width="360" height="80" viewBox="0 0 360 80"><defs><style>.a,.b{fill:#ce0e2d;}.b,.c{fill-rule:evenodd;}.c{fill:#343b42;}</style></defs><path class="a" d="M103.5753,35.0427a10.1944,10.1944,0,0,0-.5973-1.9533l-.0027-.0025a10.6125,10.6125,0,0,0-.95-1.7718,10.0114,10.0114,0,0,0-1.2484-1.5279h-.0025a10.5827,10.5827,0,0,0-1.5085-1.2512,10.8844,10.8844,0,0,0-1.73-.9625,10.05,10.05,0,0,0-1.9218-.6257,10.7318,10.7318,0,0,0-2.0453-.2383H80.2647v-.0027a2.629,2.629,0,0,0-.9969.1913,2.7375,2.7375,0,0,0-.8553.5594,2.6163,2.6163,0,0,0-.6025.8545,2.5306,2.5306,0,0,0-.2089,1.0165h.0027l0,30.7331h5.3239V47.512H93.3505a10.5148,10.5148,0,0,0,2.0862-.2081,9.888,9.888,0,0,0,1.9676-.616,10.8609,10.8609,0,0,0,1.77-.9664,10.468,10.468,0,0,0,1.537-1.27l.0025-.0025a10.4462,10.4462,0,0,0,1.27-1.5372,10.82,10.82,0,0,0,.9658-1.77h.0025a9.9667,9.9667,0,0,0,.6141-1.9706,10.479,10.479,0,0,0,.2085-2.0813h-.0027A10.4721,10.4721,0,0,0,103.5753,35.0427ZM98.3488,38.128a4.8071,4.8071,0,0,1-.2963.9572v.0025a5.25,5.25,0,0,1-.4794.88,5.0833,5.0833,0,0,1-.6228.7583l-.0024.0025a5.0968,5.0968,0,0,1-.7589.6239,5.3407,5.3407,0,0,1-.8792.4793,4.9364,4.9364,0,0,1-.954.2988h-.0027a5.0285,5.0285,0,0,1-1.0026.0978H82.9281V31.9919H93.3505a5.081,5.081,0,0,1,1.008.0972,4.7862,4.7862,0,0,1,.9471.297,5.3635,5.3635,0,0,1,.8878.4828,5.0166,5.0166,0,0,1,.7545.6211l.0024.0025a5.0369,5.0369,0,0,1,.623.7557,5.3742,5.3742,0,0,1,.4792.885v.0025a4.8192,4.8192,0,0,1,.2988.9458v.0027A5.0316,5.0316,0,0,1,98.449,37.09,5.3082,5.3082,0,0,1,98.3488,38.128Z"/><path class="a" d="M112.393,26.7067h-5.3259V57.3984a2.5646,2.5646,0,0,0,.2039,1.01,2.8144,2.8144,0,0,0,1.4438,1.4487,2.5708,2.5708,0,0,0,1.0147.2044v-.0026l18.5992,0,2.6282-5.3213H112.393Z"/><polygon class="a" points="201.582 18.283 195.432 18.283 195.056 18.283 182.548 38.983 174.52 26.689 167.804 26.689 178.512 42.804 161.429 69.963 167.998 69.963 182.627 46.491 191.799 60.101 198.374 60.101 186.769 42.472 201.582 18.283"/><path class="a" d="M166.3229,56.1487,152.3724,27.92l-.0024-.0026a2.7281,2.7281,0,0,0-.9668-1.1058,2.5641,2.5641,0,0,0-1.4009-.3945V26.42a2.56,2.56,0,0,0-1.4019.3925,2.7352,2.7352,0,0,0-.9677,1.1079c-5.1851,10.74-10.5436,21.4352-15.8086,32.1415h5.9777l4.0063-8.3373h16.4025l4.8254,9.6585Zm-21.9163-9.7513,5.5957-11.3118,5.5949,11.3118Z"/><path class="a" d="M306.3729,26.8116a2.564,2.564,0,0,0-1.4006-.3922v-.0027a2.561,2.561,0,0,0-1.4026.3957,2.7265,2.7265,0,0,0-.9685,1.1076v.0051L286.7947,60.0615h5.9786l4.0043-8.3373h16.4039l4.1679,8.3373h5.89c-2.0923-4.23-14.6167-30.7694-15.9-32.1443A2.7287,2.7287,0,0,0,306.3729,26.8116Zm-6.906,19.5858,5.595-11.3116,5.5935,11.3116Z"/><path class="a" d="M330.5554,54.7374V26.7067h-5.3261V57.3984a2.5674,2.5674,0,0,0,.204,1.0107,2.8239,2.8239,0,0,0,1.4442,1.4487,2.5772,2.5772,0,0,0,1.0148.204v-.0026l17.9193,0,2.6254-5.3213Z"/><polygon class="a" points="294.765 26.707 265.592 26.707 264.924 26.707 264.924 31.992 276.563 31.992 276.563 60.062 281.888 60.062 281.888 31.992 292.107 31.992 294.765 26.707"/><path class="a" d="M234.2447,27.4332a2.8522,2.8522,0,0,0-.6068-.5448,2.4591,2.4591,0,0,0-.7069-.3223,2.4234,2.4234,0,0,0-.8573-.1409,2.4864,2.4864,0,0,0-.8926.1841,2.69,2.69,0,0,0-.736.4459,2.5954,2.5954,0,0,0-.5489.6559L218.1847,47.04,206.5083,27.7111a2.5967,2.5967,0,0,0-.5631-.6618h-.0026a2.74,2.74,0,0,0-.7567-.4453h-.0025a2.6477,2.6477,0,0,0-.8735-.174,2.3732,2.3732,0,0,0-.8677.1283,2.499,2.499,0,0,0-1.8784,2.523v30.98h5.327V38.6134l9.03,14.9474a2.7631,2.7631,0,0,0,.9685.93,2.6133,2.6133,0,0,0,1.2922.3289v-.0027a2.5914,2.5914,0,0,0,1.2976-.3422,2.5944,2.5944,0,0,0,.5429-.402,2.8069,2.8069,0,0,0,.4338-.5375l.0025-.0078,9.0522-14.9325V60.0615h5.3269V29.081a2.5879,2.5879,0,0,0-.1487-.8784A2.51,2.51,0,0,0,234.2447,27.4332Z"/><path class="a" d="M240.0492,26.8978a2.6934,2.6934,0,0,0-.85.5578,2.6231,2.6231,0,0,0-.6056.8529,2.5289,2.5289,0,0,0-.2094,1.02h.0027l0,28.07h-.0029a2.5667,2.5667,0,0,0,.2046,1.0136,2.71,2.71,0,0,0,.587.8563l.0025.0024a2.6856,2.6856,0,0,0,.8543.5869,2.5691,2.5691,0,0,0,1.0147.2042v-.0026l20.7265,0V54.7374H243.71v-8.73h15.0078l-.0025-5.3269H243.71V31.9919h18.0637V26.7067H241.0475A2.635,2.635,0,0,0,240.0492,26.8978Z"/><polygon class="b" points="35.796 38.954 21.281 17.109 30.384 17.109 41.267 33.774 54.401 12.037 11.563 12.037 11.563 69.446 16.617 69.446 35.796 38.954"/><polygon class="c" points="63.196 12.037 46.989 38.503 62.719 62.401 53.806 62.401 41.374 43.952 25.484 69.446 68.144 69.446 68.144 12.037 63.196 12.037"/></svg>